  0
SECTION
  2
HEADER
  9
$ANGBASE
  50
0.0
  9
$ANGDIR
  70
  1
  9
$MEASUREMENT
  70
0
  0
ENDSEC
  0
SECTION
  2
TABLES
  0
TABLE
  2
LTYPE
  70
4
  0
LTYPE
  5
40F
  2
CONTINUOUS
  70
0
  3
Solid line
  72
65
  73
0
  40
0.0
  0
LTYPE
  5
410
  2
DASHDOT
 70
0
  3
Dash Dot ____ _ ____ _
 72
65
 73
4
 40
2.0
 49
1.25
 49
-0.25
 49
0.25
 49
-0.25
  0
LTYPE
  5
411
  2
DASHED
 70
0
  3
Dashed __ __ __ __ __
 72
65
 73
2
 40
0.75
 49
0.5
 49
-0.25
  0
LTYPE
  5
43B
  2
DOTTED
 70
0
  3
Dotted .  .  .  .
 72
65
 73
2
 40
0.2
 49
0.0
 49
-0.2
  0
ENDTAB
  0
TABLE
  2
STYLE
  70
4
  0
STYLE
  2
KICAD
  70
0
  40
0
  41
1
  42
1
  50
0
  71
0
  3
isocp.shx
  0
STYLE
  2
KICADB
  70
0
  40
0
  41
1
  42
1
  50
0
  71
0
  3
isocp.shx
  0
STYLE
  2
KICADI
  70
0
  40
0
  41
1
  42
1
  50
15
  71
0
  3
isocp.shx
  0
STYLE
  2
KICADBI
  70
0
  40
0
  41
1
  42
1
  50
15
  71
0
  3
isocp.shx
  0
ENDTAB
  0
TABLE
  2
LAYER
  70
30
  0
LAYER
  2
BLACK
  70
0
  62
7
  6
CONTINUOUS
  0
LAYER
  2
GRAY1
  70
0
  62
251
  6
CONTINUOUS
  0
LAYER
  2
GRAY2
  70
0
  62
8
  6
CONTINUOUS
  0
LAYER
  2
GRAY3
  70
0
  62
9
  6
CONTINUOUS
  0
LAYER
  2
WHITE
  70
0
  62
7
  6
CONTINUOUS
  0
LAYER
  2
LYELLOW
  70
0
  62
51
  6
CONTINUOUS
  0
LAYER
  2
BLUE1
  70
0
  62
178
  6
CONTINUOUS
  0
LAYER
  2
GREEN1
  70
0
  62
98
  6
CONTINUOUS
  0
LAYER
  2
CYAN1
  70
0
  62
138
  6
CONTINUOUS
  0
LAYER
  2
RED1
  70
0
  62
18
  6
CONTINUOUS
  0
LAYER
  2
MAGENTA1
  70
0
  62
228
  6
CONTINUOUS
  0
LAYER
  2
BROWN1
  70
0
  62
58
  6
CONTINUOUS
  0
LAYER
  2
BLUE2
  70
0
  62
5
  6
CONTINUOUS
  0
LAYER
  2
GREEN2
  70
0
  62
3
  6
CONTINUOUS
  0
LAYER
  2
CYAN2
  70
0
  62
4
  6
CONTINUOUS
  0
LAYER
  2
RED2
  70
0
  62
1
  6
CONTINUOUS
  0
LAYER
  2
MAGENTA2
  70
0
  62
6
  6
CONTINUOUS
  0
LAYER
  2
BROWN2
  70
0
  62
54
  6
CONTINUOUS
  0
LAYER
  2
BLUE3
  70
0
  62
171
  6
CONTINUOUS
  0
LAYER
  2
GREEN3
  70
0
  62
91
  6
CONTINUOUS
  0
LAYER
  2
CYAN3
  70
0
  62
131
  6
CONTINUOUS
  0
LAYER
  2
RED3
  70
0
  62
11
  6
CONTINUOUS
  0
LAYER
  2
MAGENTA3
  70
0
  62
221
  6
CONTINUOUS
  0
LAYER
  2
YELLOW3
  70
0
  62
2
  6
CONTINUOUS
  0
LAYER
  2
BLUE4
  70
0
  62
5
  6
CONTINUOUS
  0
LAYER
  2
GREEN4
  70
0
  62
3
  6
CONTINUOUS
  0
LAYER
  2
CYAN4
  70
0
  62
4
  6
CONTINUOUS
  0
LAYER
  2
RED4
  70
0
  62
1
  6
CONTINUOUS
  0
LAYER
  2
MAGENTA4
  70
0
  62
6
  6
CONTINUOUS
  0
LAYER
  2
YELLOW4
  70
0
  62
2
  6
CONTINUOUS
  0
ENDTAB
  0
ENDSEC
  0
SECTION
  2
ENTITIES
0
LINE
8
BLACK
6
CONTINUOUS
10
152.469
20
-130.398
11
152.47
21
-130.398
0
LINE
8
BLACK
6
CONTINUOUS
10
152.47
20
-130.398
11
152.476
21
-130.4
0
LINE
8
BLACK
6
CONTINUOUS
10
152.476
20
-130.4
11
152.483
21
-130.402
0
LINE
8
BLACK
6
CONTINUOUS
10
152.483
20
-130.402
11
153.007
21
-130.64
0
LINE
8
BLACK
6
CONTINUOUS
10
153.007
20
-130.64
11
153.008
21
-130.64
0
LINE
8
BLACK
6
CONTINUOUS
10
153.008
20
-130.64
11
153.014
21
-130.644
0
LINE
8
BLACK
6
CONTINUOUS
10
153.014
20
-130.644
11
153.019
21
-130.648
0
LINE
8
BLACK
6
CONTINUOUS
10
153.019
20
-130.648
11
153.456
21
-131.024
0
LINE
8
BLACK
6
CONTINUOUS
10
153.456
20
-131.024
11
153.456
21
-131.024
0
LINE
8
BLACK
6
CONTINUOUS
10
153.456
20
-131.024
11
153.461
21
-131.029
0
LINE
8
BLACK
6
CONTINUOUS
10
153.461
20
-131.029
11
153.465
21
-131.035
0
LINE
8
BLACK
6
CONTINUOUS
10
153.465
20
-131.035
11
153.779
21
-131.518
0
LINE
8
BLACK
6
CONTINUOUS
10
153.779
20
-131.518
11
153.779
21
-131.518
0
LINE
8
BLACK
6
CONTINUOUS
10
153.779
20
-131.518
11
153.782
21
-131.525
0
LINE
8
BLACK
6
CONTINUOUS
10
153.782
20
-131.525
11
153.785
21
-131.531
0
LINE
8
BLACK
6
CONTINUOUS
10
153.785
20
-131.531
11
153.95
21
-132.083
0
LINE
8
BLACK
6
CONTINUOUS
10
153.95
20
-132.083
11
153.95
21
-132.083
0
LINE
8
BLACK
6
CONTINUOUS
10
153.95
20
-132.083
11
153.951
21
-132.09
0
LINE
8
BLACK
6
CONTINUOUS
10
153.951
20
-132.09
11
153.952
21
-132.097
0
LINE
8
BLACK
6
CONTINUOUS
10
153.952
20
-132.097
11
153.955
21
-132.673
0
LINE
8
BLACK
6
CONTINUOUS
10
153.955
20
-132.673
11
153.955
21
-132.674
0
LINE
8
BLACK
6
CONTINUOUS
10
153.955
20
-132.674
11
153.954
21
-132.68
0
LINE
8
BLACK
6
CONTINUOUS
10
153.954
20
-132.68
11
153.953
21
-132.687
0
LINE
8
BLACK
6
CONTINUOUS
10
153.953
20
-132.687
11
153.795
21
-133.241
0
LINE
8
BLACK
6
CONTINUOUS
10
153.795
20
-133.241
11
153.795
21
-133.242
0
LINE
8
BLACK
6
CONTINUOUS
10
153.795
20
-133.242
11
153.792
21
-133.248
0
LINE
8
BLACK
6
CONTINUOUS
10
153.792
20
-133.248
11
153.789
21
-133.254
0
LINE
8
BLACK
6
CONTINUOUS
10
153.789
20
-133.254
11
153.482
21
-133.741
0
LINE
8
BLACK
6
CONTINUOUS
10
153.482
20
-133.741
11
153.481
21
-133.742
0
LINE
8
BLACK
6
CONTINUOUS
10
153.481
20
-133.742
11
153.477
21
-133.747
0
LINE
8
BLACK
6
CONTINUOUS
10
153.477
20
-133.747
11
153.473
21
-133.752
0
LINE
8
BLACK
6
CONTINUOUS
10
153.473
20
-133.752
11
153.041
21
-134.133
0
LINE
8
BLACK
6
CONTINUOUS
10
153.041
20
-134.133
11
153.04
21
-134.134
0
LINE
8
BLACK
6
CONTINUOUS
10
153.04
20
-134.134
11
153.035
21
-134.137
0
LINE
8
BLACK
6
CONTINUOUS
10
153.035
20
-134.137
11
153.029
21
-134.141
0
LINE
8
BLACK
6
CONTINUOUS
10
153.029
20
-134.141
11
152.507
21
-134.386
0
LINE
8
BLACK
6
CONTINUOUS
10
152.507
20
-134.386
11
152.507
21
-134.386
0
LINE
8
BLACK
6
CONTINUOUS
10
152.507
20
-134.386
11
152.5
21
-134.388
0
LINE
8
BLACK
6
CONTINUOUS
10
152.5
20
-134.388
11
152.494
21
-134.39
0
LINE
8
BLACK
6
CONTINUOUS
10
152.494
20
-134.39
11
151.942
21
-134.476
0
LINE
8
BLACK
6
CONTINUOUS
10
151.942
20
-134.476
11
151.942
21
-137.169
0
LINE
8
BLACK
6
CONTINUOUS
10
151.942
20
-137.169
11
151.94
21
-137.173
0
LINE
8
BLACK
6
CONTINUOUS
10
151.94
20
-137.173
11
151.94
21
-137.177
0
LINE
8
BLACK
6
CONTINUOUS
10
151.94
20
-137.177
11
151.937
21
-137.181
0
LINE
8
BLACK
6
CONTINUOUS
10
151.937
20
-137.181
11
151.936
21
-137.185
0
LINE
8
BLACK
6
CONTINUOUS
10
151.936
20
-137.185
11
151.933
21
-137.189
0
LINE
8
BLACK
6
CONTINUOUS
10
151.933
20
-137.189
11
151.931
21
-137.193
0
LINE
8
BLACK
6
CONTINUOUS
10
151.931
20
-137.193
11
151.927
21
-137.195
0
LINE
8
BLACK
6
CONTINUOUS
10
151.927
20
-137.195
11
151.925
21
-137.199
0
LINE
8
BLACK
6
CONTINUOUS
10
151.925
20
-137.199
11
151.921
21
-137.201
0
LINE
8
BLACK
6
CONTINUOUS
10
151.921
20
-137.201
11
151.917
21
-137.204
0
LINE
8
BLACK
6
CONTINUOUS
10
151.917
20
-137.204
11
151.913
21
-137.205
0
LINE
8
BLACK
6
CONTINUOUS
10
151.913
20
-137.205
11
151.909
21
-137.208
0
LINE
8
BLACK
6
CONTINUOUS
10
151.909
20
-137.208
11
151.905
21
-137.208
0
LINE
8
BLACK
6
CONTINUOUS
10
151.905
20
-137.208
11
151.901
21
-137.21
0
LINE
8
BLACK
6
CONTINUOUS
10
151.901
20
-137.21
11
95.2412
21
-137.21
0
LINE
8
BLACK
6
CONTINUOUS
10
95.2412
20
-137.21
11
95.237
21
-137.208
0
LINE
8
BLACK
6
CONTINUOUS
10
95.237
20
-137.208
11
95.2326
21
-137.208
0
LINE
8
BLACK
6
CONTINUOUS
10
95.2326
20
-137.208
11
95.2288
21
-137.205
0
LINE
8
BLACK
6
CONTINUOUS
10
95.2288
20
-137.205
11
95.2246
21
-137.204
0
LINE
8
BLACK
6
CONTINUOUS
10
95.2246
20
-137.204
11
95.2212
21
-137.201
0
LINE
8
BLACK
6
CONTINUOUS
10
95.2212
20
-137.201
11
95.2174
21
-137.199
0
LINE
8
BLACK
6
CONTINUOUS
10
95.2174
20
-137.199
11
95.2145
21
-137.195
0
LINE
8
BLACK
6
CONTINUOUS
10
95.2145
20
-137.195
11
95.2111
21
-137.193
0
LINE
8
BLACK
6
CONTINUOUS
10
95.2111
20
-137.193
11
95.2089
21
-137.189
0
LINE
8
BLACK
6
CONTINUOUS
10
95.2089
20
-137.189
11
95.206
21
-137.185
0
LINE
8
BLACK
6
CONTINUOUS
10
95.206
20
-137.185
11
95.2045
21
-137.181
0
LINE
8
BLACK
6
CONTINUOUS
10
95.2045
20
-137.181
11
95.2023
21
-137.177
0
LINE
8
BLACK
6
CONTINUOUS
10
95.2023
20
-137.177
11
95.2015
21
-137.173
0
LINE
8
BLACK
6
CONTINUOUS
10
95.2015
20
-137.173
11
95.2
21
-137.169
0
LINE
8
BLACK
6
CONTINUOUS
10
95.2
20
-137.169
11
95.2
21
-137.151
0
LINE
8
BLACK
6
CONTINUOUS
10
95.2
20
-137.151
11
95.2
21
-134.473
0
LINE
8
BLACK
6
CONTINUOUS
10
95.2
20
-134.473
11
94.6726
21
-134.397
0
LINE
8
BLACK
6
CONTINUOUS
10
94.6726
20
-134.397
11
94.6726
21
-134.397
0
LINE
8
BLACK
6
CONTINUOUS
10
94.6726
20
-134.397
11
94.672
21
-134.397
0
LINE
8
BLACK
6
CONTINUOUS
10
94.672
20
-134.397
11
94.6655
21
-134.395
0
LINE
8
BLACK
6
CONTINUOUS
10
94.6655
20
-134.395
11
94.659
21
-134.393
0
LINE
8
BLACK
6
CONTINUOUS
10
94.659
20
-134.393
11
94.1345
21
-134.155
0
LINE
8
BLACK
6
CONTINUOUS
10
94.1345
20
-134.155
11
94.134
21
-134.155
0
LINE
8
BLACK
6
CONTINUOUS
10
94.134
20
-134.155
11
94.1283
21
-134.151
0
LINE
8
BLACK
6
CONTINUOUS
10
94.1283
20
-134.151
11
94.1226
21
-134.147
0
LINE
8
BLACK
6
CONTINUOUS
10
94.1226
20
-134.147
11
93.6861
21
-133.771
0
LINE
8
BLACK
6
CONTINUOUS
10
93.6861
20
-133.771
11
93.6857
21
-133.771
0
LINE
8
BLACK
6
CONTINUOUS
10
93.6857
20
-133.771
11
93.6813
21
-133.766
0
LINE
8
BLACK
6
CONTINUOUS
10
93.6813
20
-133.766
11
93.6768
21
-133.76
0
LINE
8
BLACK
6
CONTINUOUS
10
93.6768
20
-133.76
11
93.3634
21
-133.277
0
LINE
8
BLACK
6
CONTINUOUS
10
93.3634
20
-133.277
11
93.3631
21
-133.277
0
LINE
8
BLACK
6
CONTINUOUS
10
93.3631
20
-133.277
11
93.3603
21
-133.27
0
LINE
8
BLACK
6
CONTINUOUS
10
93.3603
20
-133.27
11
93.3575
21
-133.264
0
LINE
8
BLACK
6
CONTINUOUS
10
93.3575
20
-133.264
11
93.1924
21
-132.712
0
LINE
8
BLACK
6
CONTINUOUS
10
93.1924
20
-132.712
11
93.1922
21
-132.712
0
LINE
8
BLACK
6
CONTINUOUS
10
93.1922
20
-132.712
11
93.1913
21
-132.705
0
LINE
8
BLACK
6
CONTINUOUS
10
93.1913
20
-132.705
11
93.1903
21
-132.698
0
LINE
8
BLACK
6
CONTINUOUS
10
93.1903
20
-132.698
11
93.1868
21
-132.122
0
LINE
8
BLACK
6
CONTINUOUS
10
93.1868
20
-132.122
11
93.1868
21
-132.121
0
LINE
8
BLACK
6
CONTINUOUS
10
93.1868
20
-132.121
11
93.1878
21
-132.115
0
LINE
8
BLACK
6
CONTINUOUS
10
93.1878
20
-132.115
11
93.1887
21
-132.108
0
LINE
8
BLACK
6
CONTINUOUS
10
93.1887
20
-132.108
11
93.347
21
-131.554
0
LINE
8
BLACK
6
CONTINUOUS
10
93.347
20
-131.554
11
93.3472
21
-131.553
0
LINE
8
BLACK
6
CONTINUOUS
10
93.3472
20
-131.553
11
93.3501
21
-131.547
0
LINE
8
BLACK
6
CONTINUOUS
10
93.3501
20
-131.547
11
93.3528
21
-131.541
0
LINE
8
BLACK
6
CONTINUOUS
10
93.3528
20
-131.541
11
93.6603
21
-131.054
0
LINE
8
BLACK
6
CONTINUOUS
10
93.6603
20
-131.054
11
93.6606
21
-131.053
0
LINE
8
BLACK
6
CONTINUOUS
10
93.6606
20
-131.053
11
93.665
21
-131.048
0
LINE
8
BLACK
6
CONTINUOUS
10
93.665
20
-131.048
11
93.6695
21
-131.043
0
LINE
8
BLACK
6
CONTINUOUS
10
93.6695
20
-131.043
11
94.1013
21
-130.662
0
LINE
8
BLACK
6
CONTINUOUS
10
94.1013
20
-130.662
11
94.1017
21
-130.661
0
LINE
8
BLACK
6
CONTINUOUS
10
94.1017
20
-130.661
11
94.1074
21
-130.658
0
LINE
8
BLACK
6
CONTINUOUS
10
94.1074
20
-130.658
11
94.1131
21
-130.654
0
LINE
8
BLACK
6
CONTINUOUS
10
94.1131
20
-130.654
11
94.6347
21
-130.409
0
LINE
8
BLACK
6
CONTINUOUS
10
94.6347
20
-130.409
11
94.6352
21
-130.409
0
LINE
8
BLACK
6
CONTINUOUS
10
94.6352
20
-130.409
11
94.6417
21
-130.407
0
LINE
8
BLACK
6
CONTINUOUS
10
94.6417
20
-130.407
11
94.6482
21
-130.405
0
LINE
8
BLACK
6
CONTINUOUS
10
94.6482
20
-130.405
11
95.2
21
-130.319
0
LINE
8
BLACK
6
CONTINUOUS
10
95.2
20
-130.319
11
95.2
21
-107.959
0
LINE
8
BLACK
6
CONTINUOUS
10
95.2
20
-107.959
11
95.2
21
-107.959
0
LINE
8
BLACK
6
CONTINUOUS
10
95.2
20
-107.959
11
95.2
21
-107.941
0
LINE
8
BLACK
6
CONTINUOUS
10
95.2
20
-107.941
11
95.2015
21
-107.937
0
LINE
8
BLACK
6
CONTINUOUS
10
95.2015
20
-107.937
11
95.2023
21
-107.933
0
LINE
8
BLACK
6
CONTINUOUS
10
95.2023
20
-107.933
11
95.2045
21
-107.929
0
LINE
8
BLACK
6
CONTINUOUS
10
95.2045
20
-107.929
11
95.206
21
-107.925
0
LINE
8
BLACK
6
CONTINUOUS
10
95.206
20
-107.925
11
95.2089
21
-107.921
0
LINE
8
BLACK
6
CONTINUOUS
10
95.2089
20
-107.921
11
95.2111
21
-107.917
0
LINE
8
BLACK
6
CONTINUOUS
10
95.2111
20
-107.917
11
95.2145
21
-107.915
0
LINE
8
BLACK
6
CONTINUOUS
10
95.2145
20
-107.915
11
95.2174
21
-107.911
0
LINE
8
BLACK
6
CONTINUOUS
10
95.2174
20
-107.911
11
95.2212
21
-107.909
0
LINE
8
BLACK
6
CONTINUOUS
10
95.2212
20
-107.909
11
95.2246
21
-107.906
0
LINE
8
BLACK
6
CONTINUOUS
10
95.2246
20
-107.906
11
95.2288
21
-107.905
0
LINE
8
BLACK
6
CONTINUOUS
10
95.2288
20
-107.905
11
95.2326
21
-107.902
0
LINE
8
BLACK
6
CONTINUOUS
10
95.2326
20
-107.902
11
95.237
21
-107.902
0
LINE
8
BLACK
6
CONTINUOUS
10
95.237
20
-107.902
11
95.2412
21
-107.9
0
LINE
8
BLACK
6
CONTINUOUS
10
95.2412
20
-107.9
11
151.901
21
-107.9
0
LINE
8
BLACK
6
CONTINUOUS
10
151.901
20
-107.9
11
151.905
21
-107.902
0
LINE
8
BLACK
6
CONTINUOUS
10
151.905
20
-107.902
11
151.909
21
-107.902
0
LINE
8
BLACK
6
CONTINUOUS
10
151.909
20
-107.902
11
151.913
21
-107.905
0
LINE
8
BLACK
6
CONTINUOUS
10
151.913
20
-107.905
11
151.917
21
-107.906
0
LINE
8
BLACK
6
CONTINUOUS
10
151.917
20
-107.906
11
151.921
21
-107.909
0
LINE
8
BLACK
6
CONTINUOUS
10
151.921
20
-107.909
11
151.925
21
-107.911
0
LINE
8
BLACK
6
CONTINUOUS
10
151.925
20
-107.911
11
151.927
21
-107.915
0
LINE
8
BLACK
6
CONTINUOUS
10
151.927
20
-107.915
11
151.931
21
-107.917
0
LINE
8
BLACK
6
CONTINUOUS
10
151.931
20
-107.917
11
151.933
21
-107.921
0
LINE
8
BLACK
6
CONTINUOUS
10
151.933
20
-107.921
11
151.936
21
-107.925
0
LINE
8
BLACK
6
CONTINUOUS
10
151.936
20
-107.925
11
151.937
21
-107.929
0
LINE
8
BLACK
6
CONTINUOUS
10
151.937
20
-107.929
11
151.94
21
-107.933
0
LINE
8
BLACK
6
CONTINUOUS
10
151.94
20
-107.933
11
151.94
21
-107.937
0
LINE
8
BLACK
6
CONTINUOUS
10
151.94
20
-107.937
11
151.942
21
-107.941
0
LINE
8
BLACK
6
CONTINUOUS
10
151.942
20
-107.941
11
151.942
21
-130.322
0
LINE
8
BLACK
6
CONTINUOUS
10
151.942
20
-130.322
11
152.469
21
-130.398
0
LINE
8
BLACK
6
CONTINUOUS
10
95.3
20
-108
11
95.3
21
-130.37
0
LINE
8
BLACK
6
CONTINUOUS
10
95.3
20
-130.37
11
95.2977
21
-130.383
0
LINE
8
BLACK
6
CONTINUOUS
10
95.2977
20
-130.383
11
95.2889
21
-130.398
0
LINE
8
BLACK
6
CONTINUOUS
10
95.2889
20
-130.398
11
95.2754
21
-130.409
0
LINE
8
BLACK
6
CONTINUOUS
10
95.2754
20
-130.409
11
95.2588
21
-130.415
0
LINE
8
BLACK
6
CONTINUOUS
10
95.2588
20
-130.415
11
95.2501
21
-130.415
0
LINE
8
BLACK
6
CONTINUOUS
10
95.2501
20
-130.415
11
95.2292
21
-130.416
0
LINE
8
BLACK
6
CONTINUOUS
10
95.2292
20
-130.416
11
94.6707
21
-130.503
0
LINE
8
BLACK
6
CONTINUOUS
10
94.6707
20
-130.503
11
94.1621
21
-130.741
0
LINE
8
BLACK
6
CONTINUOUS
10
94.1621
20
-130.741
11
93.741
21
-131.113
0
LINE
8
BLACK
6
CONTINUOUS
10
93.741
20
-131.113
11
93.4412
21
-131.588
0
LINE
8
BLACK
6
CONTINUOUS
10
93.4412
20
-131.588
11
93.2868
21
-132.129
0
LINE
8
BLACK
6
CONTINUOUS
10
93.2868
20
-132.129
11
93.2903
21
-132.69
0
LINE
8
BLACK
6
CONTINUOUS
10
93.2903
20
-132.69
11
93.4512
21
-133.229
0
LINE
8
BLACK
6
CONTINUOUS
10
93.4512
20
-133.229
11
93.7568
21
-133.7
0
LINE
8
BLACK
6
CONTINUOUS
10
93.7568
20
-133.7
11
94.1824
21
-134.067
0
LINE
8
BLACK
6
CONTINUOUS
10
94.1824
20
-134.067
11
94.6939
21
-134.299
0
LINE
8
BLACK
6
CONTINUOUS
10
94.6939
20
-134.299
11
95.2536
21
-134.38
0
LINE
8
BLACK
6
CONTINUOUS
10
95.2536
20
-134.38
11
95.2588
21
-134.38
0
LINE
8
BLACK
6
CONTINUOUS
10
95.2588
20
-134.38
11
95.2754
21
-134.386
0
LINE
8
BLACK
6
CONTINUOUS
10
95.2754
20
-134.386
11
95.2889
21
-134.397
0
LINE
8
BLACK
6
CONTINUOUS
10
95.2889
20
-134.397
11
95.2977
21
-134.412
0
LINE
8
BLACK
6
CONTINUOUS
10
95.2977
20
-134.412
11
95.3
21
-134.425
0
LINE
8
BLACK
6
CONTINUOUS
10
95.3
20
-134.425
11
95.3
21
-137.11
0
LINE
8
BLACK
6
CONTINUOUS
10
95.3
20
-137.11
11
151.842
21
-137.11
0
LINE
8
BLACK
6
CONTINUOUS
10
151.842
20
-137.11
11
151.842
21
-134.425
0
LINE
8
BLACK
6
CONTINUOUS
10
151.842
20
-134.425
11
151.844
21
-134.412
0
LINE
8
BLACK
6
CONTINUOUS
10
151.844
20
-134.412
11
151.853
21
-134.397
0
LINE
8
BLACK
6
CONTINUOUS
10
151.853
20
-134.397
11
151.867
21
-134.386
0
LINE
8
BLACK
6
CONTINUOUS
10
151.867
20
-134.386
11
151.883
21
-134.38
0
LINE
8
BLACK
6
CONTINUOUS
10
151.883
20
-134.38
11
151.892
21
-134.38
0
LINE
8
BLACK
6
CONTINUOUS
10
151.892
20
-134.38
11
151.913
21
-134.379
0
LINE
8
BLACK
6
CONTINUOUS
10
151.913
20
-134.379
11
152.471
21
-134.292
0
LINE
8
BLACK
6
CONTINUOUS
10
152.471
20
-134.292
11
152.98
21
-134.054
0
LINE
8
BLACK
6
CONTINUOUS
10
152.98
20
-134.054
11
153.401
21
-133.682
0
LINE
8
BLACK
6
CONTINUOUS
10
153.401
20
-133.682
11
153.701
21
-133.207
0
LINE
8
BLACK
6
CONTINUOUS
10
153.701
20
-133.207
11
153.855
21
-132.666
0
LINE
8
BLACK
6
CONTINUOUS
10
153.855
20
-132.666
11
153.852
21
-132.105
0
LINE
8
BLACK
6
CONTINUOUS
10
153.852
20
-132.105
11
153.691
21
-131.566
0
LINE
8
BLACK
6
CONTINUOUS
10
153.691
20
-131.566
11
153.385
21
-131.095
0
LINE
8
BLACK
6
CONTINUOUS
10
153.385
20
-131.095
11
152.96
21
-130.728
0
LINE
8
BLACK
6
CONTINUOUS
10
152.96
20
-130.728
11
152.448
21
-130.496
0
LINE
8
BLACK
6
CONTINUOUS
10
152.448
20
-130.496
11
151.888
21
-130.415
0
LINE
8
BLACK
6
CONTINUOUS
10
151.888
20
-130.415
11
151.883
21
-130.415
0
LINE
8
BLACK
6
CONTINUOUS
10
151.883
20
-130.415
11
151.867
21
-130.409
0
LINE
8
BLACK
6
CONTINUOUS
10
151.867
20
-130.409
11
151.853
21
-130.398
0
LINE
8
BLACK
6
CONTINUOUS
10
151.853
20
-130.398
11
151.844
21
-130.383
0
LINE
8
BLACK
6
CONTINUOUS
10
151.844
20
-130.383
11
151.842
21
-130.37
0
LINE
8
BLACK
6
CONTINUOUS
10
151.842
20
-130.37
11
151.842
21
-108
0
LINE
8
BLACK
6
CONTINUOUS
10
151.842
20
-108
11
95.3
21
-108
  0
ENDSEC
  0
EOF
