<?xml version="1.0" standalone="no"?>
 <!DOCTYPE svg PUBLIC "-//W3C//DTD SVG 1.1//EN" 
 "http://www.w3.org/Graphics/SVG/1.1/DTD/svg11.dtd"> 
<svg xmlns="http://www.w3.org/2000/svg" version="1.1" 
    width="7.10946cm" height="3.46456cm" viewBox="0 0 27990 13640 ">
<title>SVG Picture created as circuit-brd.svg date 2019/01/26 00:53:45 </title>
  <desc>Picture generated by PCBNEW </desc>
<g style="fill:#000000; fill-opacity:1;stroke:#000000; stroke-opacity:1;
stroke-linecap:round; stroke-linejoin:round; "
 transform="translate(0 0) scale(1 1)">
</g>
<g style="fill:#000000; fill-opacity:0.0; 
stroke:#000000; stroke-width:-0.000393701; stroke-opacity:1; 
stroke-linecap:round; stroke-linejoin:round;">
</g>
<g style="fill:#000000; fill-opacity:0.0; 
stroke:#000000; stroke-width:59.0551; stroke-opacity:1; 
stroke-linecap:round; stroke-linejoin:round;">
<path d="M7640 10381
L7640 11231
" />
<path d="M9890 10381
L7640 10381
" />
<path d="M9890 11231
L9890 10381
" />
<path d="M26165 10656
L26165 11231
" />
<path d="M23440 10656
L26165 10656
" />
<path d="M23440 11231
L23440 10656
" />
</g>
<g style="fill:#000000; fill-opacity:0.0; 
stroke:#000000; stroke-width:78.7402; stroke-opacity:1; 
stroke-linecap:round; stroke-linejoin:round;">
<path d="M24475 11073
L24475 10759
" />
<path d="M24475 10908
L24655 10908
" />
<path d="M24655 11073
L24655 10759
" />
<path d="M25163 11073
L25013 11073
L25013 10759
" />
<path d="M25395 10953
L25635 10953
" />
<path d="M23945 10953
L24185 10953
" />
<path d="M24065 11073
L24065 10834
" />
<path d="M8683 10873
L8683 10559
L8758 10559
L8803 10574
L8833 10604
L8848 10634
L8863 10694
L8863 10738
L8848 10798
L8833 10828
L8803 10858
L8758 10873
L8683 10873
" />
<path d="M9145 10753
L9385 10753
" />
<path d="M8145 10753
L8385 10753
" />
<path d="M8265 10873
L8265 10634
" />
</g>
<g style="fill:#000000; fill-opacity:0.0; 
stroke:#000000; stroke-width:196.85; stroke-opacity:1; 
stroke-linecap:round; stroke-linejoin:round;">
<path d="M9335 5061
L9859 5061
L9522 5848
" />
<path d="M10159 5548
L10759 5548
" />
<path d="M11097 5811
L11209 5848
L11397 5848
L11472 5811
L11509 5773
L11547 5698
L11547 5623
L11509 5548
L11472 5511
L11397 5473
L11247 5436
L11172 5398
L11134 5361
L11097 5286
L11097 5211
L11134 5136
L11172 5098
L11247 5061
L11434 5061
L11547 5098
" />
<path d="M12184 5811
L12109 5848
L11959 5848
L11884 5811
L11847 5736
L11847 5436
L11884 5361
L11959 5323
L12109 5323
L12184 5361
L12222 5436
L12222 5511
L11847 5586
" />
<path d="M12897 5323
L12897 5961
L12859 6036
L12822 6073
L12747 6111
L12634 6111
L12559 6073
" />
<path d="M12897 5811
L12822 5848
L12672 5848
L12597 5811
L12559 5773
L12522 5698
L12522 5473
L12559 5398
L12597 5361
L12672 5323
L12822 5323
L12897 5361
" />
<path d="M13272 5848
L13272 5323
" />
<path d="M13272 5398
L13309 5361
L13384 5323
L13497 5323
L13572 5361
L13609 5436
L13609 5848
" />
<path d="M13609 5436
L13647 5361
L13722 5323
L13834 5323
L13909 5361
L13946 5436
L13946 5848
" />
<path d="M14621 5811
L14546 5848
L14396 5848
L14321 5811
L14284 5736
L14284 5436
L14321 5361
L14396 5323
L14546 5323
L14621 5361
L14659 5436
L14659 5511
L14284 5586
" />
<path d="M14996 5323
L14996 5848
" />
<path d="M14996 5398
L15034 5361
L15109 5323
L15221 5323
L15296 5361
L15334 5436
L15334 5848
" />
<path d="M15596 5323
L15896 5323
" />
<path d="M15709 5061
L15709 5736
L15746 5811
L15821 5848
L15896 5848
" />
<path d="M16759 5848
L16759 5061
L16946 5061
L17059 5098
L17134 5173
L17171 5248
L17209 5398
L17209 5511
L17171 5661
L17134 5736
L17059 5811
L16946 5848
L16759 5848
" />
<path d="M17546 5848
L17546 5323
" />
<path d="M17546 5061
L17509 5098
L17546 5136
L17584 5098
L17546 5061
L17546 5136
" />
<path d="M17883 5811
L17958 5848
L18108 5848
L18183 5811
L18221 5736
L18221 5698
L18183 5623
L18108 5586
L17996 5586
L17921 5548
L17883 5473
L17883 5436
L17921 5361
L17996 5323
L18108 5323
L18183 5361
" />
<path d="M18558 5323
L18558 6111
" />
<path d="M18558 5361
L18633 5323
L18783 5323
L18858 5361
L18896 5398
L18933 5473
L18933 5698
L18896 5773
L18858 5811
L18783 5848
L18633 5848
L18558 5811
" />
<path d="M19383 5848
L19308 5811
L19271 5736
L19271 5061
" />
<path d="M20021 5848
L20021 5436
L19983 5361
L19908 5323
L19758 5323
L19683 5361
" />
<path d="M20021 5811
L19946 5848
L19758 5848
L19683 5811
L19646 5736
L19646 5661
L19683 5586
L19758 5548
L19946 5548
L20021 5511
" />
<path d="M20321 5323
L20508 5848
" />
<path d="M20696 5323
L20508 5848
L20433 6036
L20396 6073
L20321 6111
" />
<path d="M13197 6701
L13197 7226
" />
<path d="M13009 6401
L12822 6964
L13309 6964
" />
<path d="M14209 7226
L14209 6439
L14396 6439
L14509 6476
L14584 6551
L14621 6626
L14659 6776
L14659 6889
L14621 7039
L14584 7114
L14509 7189
L14396 7226
L14209 7226
" />
<path d="M14996 7226
L14996 6701
" />
<path d="M14996 6439
L14959 6476
L14996 6514
L15034 6476
L14996 6439
L14996 6514
" />
<path d="M15709 6701
L15709 7339
L15671 7414
L15634 7451
L15559 7489
L15446 7489
L15371 7451
" />
<path d="M15709 7189
L15634 7226
L15484 7226
L15409 7189
L15371 7151
L15334 7076
L15334 6851
L15371 6776
L15409 6739
L15484 6701
L15634 6701
L15709 6739
" />
<path d="M16084 7226
L16084 6701
" />
<path d="M16084 6439
L16046 6476
L16084 6514
L16121 6476
L16084 6439
L16084 6514
" />
<path d="M16346 6701
L16646 6701
" />
<path d="M16459 6439
L16459 7114
L16496 7189
L16571 7226
L16646 7226
" />
<path d="M16871 7189
L16946 7226
L17096 7226
L17171 7189
L17209 7114
L17209 7076
L17171 7001
L17096 6964
L16984 6964
L16909 6926
L16871 6851
L16871 6814
L16909 6739
L16984 6701
L17096 6701
L17171 6739
" />
</g>
<g style="fill:#000000; fill-opacity:0.0; 
stroke:#000000; stroke-width:39.3701; stroke-opacity:1; 
stroke-linecap:round; stroke-linejoin:round;">
<path d="M19365 12231
L18415 13131
" />
<path d="M18415 13131
L16365 13131
" />
<path d="M19365 11281
L19365 12231
" />
</g>
<g style="fill:#000000; fill-opacity:0.0; 
stroke:#000000; stroke-width:78.7402; stroke-opacity:1; 
stroke-linecap:round; stroke-linejoin:round;">
<path d="M16898 11908
L17048 11908
" />
<path d="M16868 11998
L16973 11683
L17078 11998
" />
<path d="M17183 11998
L17183 11788
" />
<path d="M17183 11848
L17198 11818
L17213 11803
L17243 11788
L17273 11788
" />
<path d="M17513 11998
L17513 11683
" />
<path d="M17513 11983
L17483 11998
L17423 11998
L17393 11983
L17378 11968
L17363 11938
L17363 11848
L17378 11818
L17393 11803
L17423 11788
L17483 11788
L17513 11803
" />
<path d="M17798 11788
L17798 11998
" />
<path d="M17663 11788
L17663 11953
L17678 11983
L17708 11998
L17753 11998
L17783 11983
L17798 11968
" />
<path d="M17948 11998
L17948 11788
" />
<path d="M17948 11683
L17933 11698
L17948 11713
L17963 11698
L17948 11683
L17948 11713
" />
<path d="M18098 11788
L18098 11998
" />
<path d="M18098 11818
L18113 11803
L18143 11788
L18188 11788
L18218 11803
L18233 11833
L18233 11998
" />
<path d="M18428 11998
L18398 11983
L18383 11968
L18368 11938
L18368 11848
L18383 11818
L18398 11803
L18428 11788
L18472 11788
L18502 11803
L18517 11818
L18532 11848
L18532 11938
L18517 11968
L18502 11983
L18472 11998
L18428 11998
" />
<path d="M17273 12249
L17243 12234
L17198 12234
L17153 12249
L17123 12279
L17108 12309
L17093 12369
L17093 12414
L17108 12474
L17123 12504
L17153 12534
L17198 12549
L17228 12549
L17273 12534
L17288 12519
L17288 12414
L17228 12414
" />
<path d="M17423 12549
L17423 12234
L17543 12234
L17573 12249
L17588 12264
L17603 12294
L17603 12339
L17588 12369
L17573 12384
L17543 12399
L17423 12399
" />
<path d="M17738 12549
L17738 12234
" />
<path d="M17948 12234
L18008 12234
L18038 12249
L18068 12279
L18083 12339
L18083 12444
L18068 12504
L18038 12534
L18008 12549
L17948 12549
L17918 12534
L17888 12504
L17873 12444
L17873 12339
L17888 12279
L17918 12249
L17948 12234
" />
<path d="M18203 12534
L18233 12549
L18293 12549
L18323 12534
L18338 12504
L18338 12489
L18323 12459
L18293 12444
L18248 12444
L18218 12429
L18203 12399
L18203 12384
L18218 12354
L18248 12339
L18293 12339
L18323 12354
" />
<path d="M7785 12623
L7785 12309
L7965 12623
L7965 12309
" />
<path d="M8235 12608
L8205 12623
L8145 12623
L8115 12608
L8100 12578
L8100 12458
L8115 12429
L8145 12414
L8205 12414
L8235 12429
L8250 12458
L8250 12488
L8100 12518
" />
<path d="M8430 12623
L8400 12608
L8385 12593
L8370 12563
L8370 12473
L8385 12444
L8400 12429
L8430 12414
L8475 12414
L8505 12429
L8520 12444
L8535 12473
L8535 12563
L8520 12593
L8505 12608
L8475 12623
L8430 12623
" />
<path d="M8670 12414
L8670 12728
" />
<path d="M8670 12429
L8700 12414
L8760 12414
L8790 12429
L8805 12444
L8820 12473
L8820 12563
L8805 12593
L8790 12608
L8760 12623
L8700 12623
L8670 12608
" />
<path d="M8955 12623
L8955 12414
" />
<path d="M8955 12309
L8940 12324
L8955 12339
L8970 12324
L8955 12309
L8955 12339
" />
<path d="M9075 12623
L9240 12414
" />
<path d="M9075 12414
L9240 12623
" />
<path d="M9480 12608
L9450 12623
L9390 12623
L9360 12608
L9345 12578
L9345 12458
L9360 12429
L9390 12414
L9450 12414
L9480 12429
L9495 12458
L9495 12488
L9345 12518
" />
<path d="M9675 12623
L9645 12608
L9630 12578
L9630 12309
" />
<path d="M23878 12448
L23878 12133
L23998 12133
L24028 12148
L24043 12163
L24058 12193
L24058 12238
L24043 12268
L24028 12283
L23998 12298
L23878 12298
" />
<path d="M24238 12448
L24208 12433
L24193 12418
L24178 12388
L24178 12298
L24193 12268
L24208 12253
L24238 12238
L24283 12238
L24313 12253
L24328 12268
L24343 12298
L24343 12388
L24328 12418
L24313 12433
L24283 12448
L24238 12448
" />
<path d="M24448 12238
L24508 12448
L24568 12298
L24628 12448
L24688 12238
" />
<path d="M24928 12433
L24898 12448
L24838 12448
L24808 12433
L24793 12403
L24793 12283
L24808 12253
L24838 12238
L24898 12238
L24928 12253
L24943 12283
L24943 12313
L24793 12343
" />
<path d="M25078 12448
L25078 12238
" />
<path d="M25078 12298
L25093 12268
L25108 12253
L25138 12238
L25168 12238
" />
<path d="M25767 12448
L25752 12448
L25722 12433
L25677 12388
L25602 12298
L25572 12253
L25557 12208
L25557 12178
L25572 12148
L25602 12133
L25617 12133
L25647 12148
L25662 12178
L25662 12193
L25647 12223
L25632 12238
L25542 12298
L25528 12313
L25513 12343
L25513 12388
L25528 12418
L25542 12433
L25572 12448
L25617 12448
L25647 12433
L25662 12418
L25707 12358
L25722 12313
L25722 12283
" />
<path d="M24613 12969
L24598 12984
L24553 12999
L24523 12999
L24478 12984
L24448 12954
L24433 12924
L24418 12864
L24418 12819
L24433 12759
L24448 12729
L24478 12699
L24523 12684
L24553 12684
L24598 12699
L24613 12714
" />
<path d="M24733 12909
L24883 12909
" />
<path d="M24703 12999
L24808 12684
L24913 12999
" />
<path d="M25018 12999
L25018 12684
L25198 12999
L25198 12684
" />
<path d="M21838 9783
L21733 9783
" />
<path d="M21733 9948
L21733 9633
L21883 9633
" />
<path d="M21988 9933
L22033 9948
L22108 9948
L22138 9933
L22153 9918
L22168 9888
L22168 9858
L22153 9828
L22138 9813
L22108 9798
L22048 9783
L22018 9768
L22003 9753
L21988 9723
L21988 9693
L22003 9663
L22018 9648
L22048 9633
L22123 9633
L22168 9648
" />
<path d="M22288 9663
L22303 9648
L22333 9633
L22408 9633
L22438 9648
L22453 9663
L22468 9693
L22468 9723
L22453 9768
L22273 9948
L22468 9948
" />
<path d="M22663 9633
L22693 9633
L22723 9648
L22738 9663
L22753 9693
L22768 9753
L22768 9828
L22753 9888
L22738 9918
L22723 9933
L22693 9948
L22663 9948
L22633 9933
L22618 9918
L22603 9888
L22588 9828
L22588 9753
L22603 9693
L22618 9663
L22633 9648
L22663 9633
" />
<path d="M23068 9948
L22888 9948
" />
<path d="M22978 9948
L22978 9633
L22948 9678
L22918 9708
L22888 9723
" />
<path d="M23218 9948
L23278 9948
L23308 9933
L23323 9918
L23353 9873
L23368 9813
L23368 9693
L23353 9663
L23338 9648
L23308 9633
L23248 9633
L23218 9648
L23203 9663
L23188 9693
L23188 9768
L23203 9798
L23218 9813
L23248 9828
L23308 9828
L23338 9813
L23353 9798
L23368 9768
" />
<path d="M23743 9828
L23983 9828
" />
<path d="M24373 9948
L24373 9633
L24448 9633
L24493 9648
L24523 9678
L24538 9708
L24553 9768
L24553 9813
L24538 9873
L24523 9903
L24493 9933
L24448 9948
L24373 9948
" />
<path d="M24823 9948
L24823 9783
L24808 9753
L24778 9738
L24718 9738
L24688 9753
" />
<path d="M24823 9933
L24793 9948
L24718 9948
L24688 9933
L24673 9903
L24673 9873
L24688 9843
L24718 9828
L24793 9828
L24823 9813
" />
<path d="M24957 9933
L24987 9948
L25047 9948
L25077 9933
L25092 9903
L25092 9888
L25077 9858
L25047 9843
L25002 9843
L24972 9828
L24957 9798
L24957 9783
L24972 9753
L25002 9738
L25047 9738
L25077 9753
" />
<path d="M25227 9948
L25227 9633
" />
<path d="M25362 9948
L25362 9783
L25347 9753
L25317 9738
L25272 9738
L25242 9753
L25227 9768
" />
<path d="M25512 9948
L25512 9633
" />
<path d="M25512 9753
L25542 9738
L25602 9738
L25632 9753
L25647 9768
L25662 9798
L25662 9888
L25647 9918
L25632 9933
L25602 9948
L25542 9948
L25512 9933
" />
<path d="M25842 9948
L25812 9933
L25797 9918
L25782 9888
L25782 9798
L25797 9768
L25812 9753
L25842 9738
L25887 9738
L25917 9753
L25932 9768
L25947 9798
L25947 9888
L25932 9918
L25917 9933
L25887 9948
L25842 9948
" />
<path d="M26217 9948
L26217 9783
L26202 9753
L26172 9738
L26112 9738
L26082 9753
" />
<path d="M26217 9933
L26187 9948
L26112 9948
L26082 9933
L26067 9903
L26067 9873
L26082 9843
L26112 9828
L26187 9828
L26217 9813
" />
<path d="M26367 9948
L26367 9738
" />
<path d="M26367 9798
L26382 9768
L26397 9753
L26427 9738
L26457 9738
" />
<path d="M26697 9948
L26697 9633
" />
<path d="M26697 9933
L26667 9948
L26607 9948
L26577 9933
L26562 9918
L26547 9888
L26547 9798
L26562 9768
L26577 9753
L26607 9738
L26667 9738
L26697 9753
" />
<path d="M22273 10499
L22273 10184
" />
<path d="M22273 10304
L22303 10289
L22363 10289
L22393 10304
L22408 10319
L22423 10349
L22423 10439
L22408 10469
L22393 10484
L22363 10499
L22303 10499
L22273 10484
" />
<path d="M22528 10289
L22603 10499
" />
<path d="M22678 10289
L22603 10499
L22573 10574
L22558 10589
L22528 10604
" />
<path d="M23218 10499
L23113 10349
" />
<path d="M23038 10499
L23038 10184
L23158 10184
L23188 10199
L23203 10214
L23218 10244
L23218 10289
L23203 10319
L23188 10334
L23158 10349
L23038 10349
" />
<path d="M23353 10499
L23353 10289
" />
<path d="M23353 10184
L23338 10199
L23353 10214
L23368 10199
L23353 10184
L23353 10214
" />
<path d="M23638 10484
L23608 10499
L23548 10499
L23518 10484
L23503 10469
L23488 10439
L23488 10349
L23503 10319
L23518 10304
L23548 10289
L23608 10289
L23638 10304
" />
<path d="M23773 10499
L23773 10184
" />
<path d="M23803 10379
L23893 10499
" />
<path d="M23893 10289
L23773 10409
" />
<path d="M24268 10499
L24268 10184
" />
<path d="M24268 10334
L24448 10334
" />
<path d="M24448 10499
L24448 10184
" />
<path d="M24643 10499
L24613 10484
L24598 10469
L24583 10439
L24583 10349
L24598 10319
L24613 10304
L24643 10289
L24688 10289
L24718 10304
L24733 10319
L24748 10349
L24748 10439
L24733 10469
L24718 10484
L24688 10499
L24643 10499
" />
<path d="M24928 10499
L24898 10484
L24883 10454
L24883 10184
" />
<path d="M25092 10499
L25062 10484
L25047 10454
L25047 10184
" />
<path d="M25212 10499
L25212 10289
" />
<path d="M25212 10184
L25197 10199
L25212 10214
L25227 10199
L25212 10184
L25212 10214
" />
<path d="M25362 10289
L25362 10499
" />
<path d="M25362 10319
L25377 10304
L25407 10289
L25452 10289
L25482 10304
L25497 10334
L25497 10499
" />
<path d="M25632 10484
L25662 10499
L25722 10499
L25752 10484
L25767 10454
L25767 10439
L25752 10409
L25722 10394
L25677 10394
L25647 10379
L25632 10349
L25632 10334
L25647 10304
L25677 10289
L25722 10289
L25752 10304
" />
<path d="M25902 10499
L25902 10184
" />
<path d="M25932 10379
L26022 10499
" />
<path d="M26022 10289
L25902 10409
" />
<path d="M26157 10499
L26157 10289
" />
<path d="M26157 10184
L26142 10199
L26157 10214
L26172 10199
L26157 10184
L26157 10214
" />
</g>
<g style="fill:#000000; fill-opacity:0.0; 
stroke:#000000; stroke-width:98.4252; stroke-opacity:1; 
stroke-linecap:round; stroke-linejoin:round;">
<path d="M5878 12909
L5746 12722
" />
<path d="M5653 12909
L5653 12515
L5803 12515
L5840 12534
L5859 12553
L5878 12590
L5878 12647
L5859 12684
L5840 12703
L5803 12722
L5653 12722
" />
<path d="M6196 12890
L6159 12909
L6084 12909
L6046 12890
L6028 12853
L6028 12703
L6046 12665
L6084 12647
L6159 12647
L6196 12665
L6215 12703
L6215 12740
L6028 12778
" />
<path d="M6365 12890
L6403 12909
L6478 12909
L6515 12890
L6534 12853
L6534 12834
L6515 12797
L6478 12778
L6421 12778
L6384 12759
L6365 12722
L6365 12703
L6384 12665
L6421 12647
L6478 12647
L6515 12665
" />
<path d="M6853 12890
L6815 12909
L6740 12909
L6703 12890
L6684 12853
L6684 12703
L6703 12665
L6740 12647
L6815 12647
L6853 12665
L6871 12703
L6871 12740
L6684 12778
" />
<path d="M6984 12647
L7134 12647
" />
<path d="M7040 12515
L7040 12853
L7059 12890
L7096 12909
L7134 12909
" />
</g>
<g style="fill:#000000; fill-opacity:0.0; 
stroke:#000000; stroke-width:47.2441; stroke-opacity:1; 
stroke-linecap:round; stroke-linejoin:round;">
<path d="M23967 11228
L23967 11110
" />
<path d="M23967 11110
L23770 11110
" />
<path d="M24803 11342
L23852 11342
" />
<path d="M23852 11342
L23852 11224
" />
<path d="M23852 11224
L23431 11224
" />
<path d="M23431 11224
L23431 13476
" />
<path d="M23431 13476
L24803 13476
" />
<path d="M24803 11342
L25754 11342
" />
<path d="M25754 11342
L25754 11224
" />
<path d="M25754 11224
L26175 11224
" />
<path d="M26175 11224
L26175 13476
" />
<path d="M26175 13476
L24803 13476
" />
<path d="M8167 11228
L8167 11110
" />
<path d="M8167 11110
L7970 11110
" />
<path d="M8757 11342
L8052 11342
" />
<path d="M8052 11342
L8052 11224
" />
<path d="M8052 11224
L7631 11224
" />
<path d="M7631 11224
L7631 13476
" />
<path d="M7631 13476
L8757 13476
" />
<path d="M8757 11342
L9462 11342
" />
<path d="M9462 11342
L9462 11224
" />
<path d="M9462 11224
L9883 11224
" />
<path d="M9883 11224
L9883 13476
" />
<path d="M9883 13476
L8757 13476
" />
<path d="M10015 3205
L10015 2157
" />
<path d="M10015 3205
L13039 3205
" />
<path d="M13039 3205
L13039 2157
" />
<path d="M10015 2157
L13039 2157
" />
<path d="M8991 2157
L9515 2157
" />
<path d="M8991 2681
L8991 2157
" />
<path d="M21015 3205
L21015 2157
" />
<path d="M21015 3205
L24039 3205
" />
<path d="M24039 3205
L24039 2157
" />
<path d="M21015 2157
L24039 2157
" />
<path d="M19991 2157
L20515 2157
" />
<path d="M19991 2681
L19991 2157
" />
<path d="M5865 12114
L5865 12232
" />
<path d="M5865 12232
L7165 12232
" />
<path d="M7165 12232
L7165 12114
" />
<path d="M5865 11248
L5865 11130
" />
<path d="M5865 11130
L7165 11130
" />
<path d="M7165 11130
L7165 11248
" />
<path d="M6966 9368
L6966 1794
" />
<path d="M6966 9368
L26864 9368
" />
<path d="M26864 9368
L26864 1794
" />
<path d="M26864 1794
L6966 1794
" />
<path d="M14021 9518
L14809 9518
" />
<path d="M19362 9937
L19362 11275
" />
<path d="M18023 9937
L19362 9937
" />
<path d="M18023 11275
L18023 9937
" />
<path d="M19362 11275
L18023 11275
" />
<path d="M17862 11275
L16523 11275
" />
<path d="M16523 11275
L16523 9937
" />
<path d="M16523 9937
L17862 9937
" />
<path d="M17862 9937
L17862 11275
" />
<path d="M16362 9937
L16362 11275
" />
<path d="M15023 9937
L16362 9937
" />
<path d="M15023 11275
L15023 9937
" />
<path d="M16362 11275
L15023 11275
" />
<path d="M14862 11275
L13523 11275
" />
<path d="M13523 11275
L13523 9937
" />
<path d="M13523 9937
L14862 9937
" />
<path d="M14862 9937
L14862 11275
" />
<path d="M5296 1912
L6634 1912
" />
<path d="M5296 3250
L5296 1912
" />
<path d="M6634 3250
L5296 3250
" />
<path d="M6634 1912
L6634 3250
" />
<path d="M13362 9937
L13362 11275
" />
<path d="M12023 9937
L13362 9937
" />
<path d="M12023 11275
L12023 9937
" />
<path d="M13362 11275
L12023 11275
" />
<path d="M6634 4912
L6634 6250
" />
<path d="M6634 6250
L5296 6250
" />
<path d="M5296 6250
L5296 4912
" />
<path d="M5296 4912
L6634 4912
" />
<path d="M11862 9937
L11862 11275
" />
<path d="M10523 9937
L11862 9937
" />
<path d="M10523 11275
L10523 9937
" />
<path d="M11862 11275
L10523 11275
" />
<path d="M5296 3412
L6634 3412
" />
<path d="M5296 4750
L5296 3412
" />
<path d="M6634 4750
L5296 4750
" />
<path d="M6634 3412
L6634 4750
" />
<path d="M6634 6412
L6634 7750
" />
<path d="M6634 7750
L5296 7750
" />
<path d="M5296 7750
L5296 6412
" />
<path d="M5296 6412
L6634 6412
" />
<path d="M16362 13125
L15023 13125
" />
<path d="M15023 13125
L15023 11787
" />
<path d="M15023 11787
L16362 11787
" />
<path d="M16362 11787
L16362 13125
" />
<path d="M14862 11787
L14862 13125
" />
<path d="M13523 11787
L14862 11787
" />
<path d="M13523 13125
L13523 11787
" />
<path d="M14862 13125
L13523 13125
" />
<path d="M13362 13125
L12023 13125
" />
<path d="M12023 13125
L12023 11787
" />
<path d="M12023 11787
L13362 11787
" />
<path d="M13362 11787
L13362 13125
" />
<path d="M11862 11787
L11862 13125
" />
<path d="M10523 11787
L11862 11787
" />
<path d="M10523 13125
L10523 11787
" />
<path d="M11862 13125
L10523 13125
" />
<path d="M6634 9412
L6634 10750
" />
<path d="M6634 10750
L5296 10750
" />
<path d="M5296 10750
L5296 9412
" />
<path d="M5296 9412
L6634 9412
" />
<path d="M5296 7912
L6634 7912
" />
<path d="M5296 9250
L5296 7912
" />
<path d="M6634 9250
L5296 9250
" />
<path d="M6634 7912
L6634 9250
" />
</g>
<g style="fill:#000000; fill-opacity:0.0; 
stroke:#000000; stroke-width:147.638; stroke-opacity:1; 
stroke-linecap:round; stroke-linejoin:round;">
<path d="M10126 3358
L10239 3358
L10295 3386
L10351 3442
L10379 3554
L10379 3751
L10351 3864
L10295 3920
L10239 3948
L10126 3948
L10070 3920
L10014 3864
L9986 3751
L9986 3554
L10014 3442
L10070 3386
L10126 3358
" />
<path d="M10914 3948
L10632 3948
L10632 3358
" />
<path d="M11110 3639
L11307 3639
" />
<path d="M11392 3948
L11110 3948
L11110 3358
L11392 3358
" />
<path d="M11645 3948
L11645 3358
L11785 3358
L11870 3386
L11926 3442
L11954 3498
L11982 3611
L11982 3695
L11954 3808
L11926 3864
L11870 3920
L11785 3948
L11645 3948
" />
<path d="M12545 3948
L12207 3948
" />
<path d="M12376 3948
L12376 3358
L12320 3442
L12263 3498
L12207 3526
" />
<path d="M21376 3358
L21489 3358
L21545 3386
L21601 3442
L21629 3554
L21629 3751
L21601 3864
L21545 3920
L21489 3948
L21376 3948
L21320 3920
L21264 3864
L21236 3751
L21236 3554
L21264 3442
L21320 3386
L21376 3358
" />
<path d="M22164 3948
L21882 3948
L21882 3358
" />
<path d="M22360 3639
L22557 3639
" />
<path d="M22642 3948
L22360 3948
L22360 3358
L22642 3358
" />
<path d="M22895 3948
L22895 3358
L23035 3358
L23120 3386
L23176 3442
L23204 3498
L23232 3611
L23232 3695
L23204 3808
L23176 3864
L23120 3920
L23035 3948
L22895 3948
" />
<path d="M23457 3414
L23485 3386
L23542 3358
L23682 3358
L23738 3386
L23766 3414
L23795 3470
L23795 3526
L23766 3611
L23429 3948
L23795 3948
" />
</g>
<g style="fill:#000000; fill-opacity:0.0; 
stroke:#000000; stroke-width:59.0551; stroke-opacity:1; 
stroke-linecap:round; stroke-linejoin:round;">
<path d="M18518 9838
L18518 9602
L18574 9602
L18608 9613
L18631 9635
L18642 9658
L18653 9703
L18653 9737
L18642 9782
L18631 9804
L18608 9827
L18574 9838
L18518 9838
" />
<path d="M18732 9602
L18878 9602
L18799 9692
L18833 9692
L18856 9703
L18867 9714
L18878 9737
L18878 9793
L18867 9815
L18856 9827
L18833 9838
L18766 9838
L18743 9827
L18732 9815
" />
<path d="M16991 9838
L16991 9602
L17047 9602
L17081 9613
L17103 9635
L17114 9658
L17126 9703
L17126 9737
L17114 9782
L17103 9804
L17081 9827
L17047 9838
L16991 9838
" />
<path d="M17339 9602
L17227 9602
L17216 9714
L17227 9703
L17249 9692
L17306 9692
L17328 9703
L17339 9714
L17351 9737
L17351 9793
L17339 9815
L17328 9827
L17306 9838
L17249 9838
L17227 9827
L17216 9815
" />
<path d="M15518 9838
L15518 9602
L15574 9602
L15608 9613
L15631 9635
L15642 9658
L15653 9703
L15653 9737
L15642 9782
L15631 9804
L15608 9827
L15574 9838
L15518 9838
" />
<path d="M15856 9602
L15811 9602
L15788 9613
L15777 9624
L15754 9658
L15743 9703
L15743 9793
L15754 9815
L15766 9827
L15788 9838
L15833 9838
L15856 9827
L15867 9815
L15878 9793
L15878 9737
L15867 9714
L15856 9703
L15833 9692
L15788 9692
L15766 9703
L15754 9714
L15743 9737
" />
<path d="M14018 9838
L14018 9602
L14074 9602
L14108 9613
L14131 9635
L14142 9658
L14153 9703
L14153 9737
L14142 9782
L14131 9804
L14108 9827
L14074 9838
L14018 9838
" />
<path d="M14232 9602
L14389 9602
L14288 9838
" />
<path d="M5134 2521
L5134 2371
L4984 2356
L4999 2371
L5014 2401
L5014 2476
L4999 2506
L4984 2521
L4954 2536
L4879 2536
L4849 2521
L4834 2506
L4819 2476
L4819 2401
L4834 2371
L4849 2356
" />
<path d="M5134 2626
L4819 2731
L5134 2836
" />
<path d="M12518 9838
L12518 9602
L12574 9602
L12608 9613
L12631 9635
L12642 9658
L12653 9703
L12653 9737
L12642 9782
L12631 9804
L12608 9827
L12574 9838
L12518 9838
" />
<path d="M12788 9703
L12766 9692
L12754 9680
L12743 9658
L12743 9647
L12754 9624
L12766 9613
L12788 9602
L12833 9602
L12856 9613
L12867 9624
L12878 9647
L12878 9658
L12867 9680
L12856 9692
L12833 9703
L12788 9703
L12766 9714
L12754 9725
L12743 9748
L12743 9793
L12754 9815
L12766 9827
L12788 9838
L12833 9838
L12856 9827
L12867 9815
L12878 9793
L12878 9748
L12867 9725
L12856 9714
L12833 9703
" />
<path d="M4819 5551
L4969 5446
" />
<path d="M4819 5371
L5134 5371
L5134 5491
L5119 5521
L5104 5536
L5074 5551
L5029 5551
L4999 5536
L4984 5521
L4969 5491
L4969 5371
" />
<path d="M4819 5656
L5029 5821
" />
<path d="M5029 5656
L4819 5821
" />
<path d="M11018 9838
L11018 9602
L11074 9602
L11108 9613
L11131 9635
L11142 9658
L11153 9703
L11153 9737
L11142 9782
L11131 9804
L11108 9827
L11074 9838
L11018 9838
" />
<path d="M11266 9838
L11311 9838
L11333 9827
L11344 9815
L11367 9782
L11378 9737
L11378 9647
L11367 9624
L11356 9613
L11333 9602
L11288 9602
L11266 9613
L11254 9624
L11243 9647
L11243 9703
L11254 9725
L11266 9737
L11288 9748
L11333 9748
L11356 9737
L11367 9725
L11378 9703
" />
<path d="M5134 3864
L5134 4044
" />
<path d="M4819 3954
L5134 3954
" />
<path d="M4819 4118
L5029 4283
" />
<path d="M5029 4118
L4819 4283
" />
<path d="M5119 6879
L5134 6849
L5134 6804
L5119 6759
L5089 6729
L5059 6714
L4999 6699
L4954 6699
L4894 6714
L4864 6729
L4834 6759
L4819 6804
L4819 6834
L4834 6879
L4849 6894
L4954 6894
L4954 6834
" />
<path d="M5029 7029
L4819 7029
" />
<path d="M4999 7029
L5014 7044
L5029 7073
L5029 7118
L5014 7148
L4984 7163
L4819 7163
" />
<path d="M4819 7448
L5134 7448
" />
<path d="M4834 7448
L4819 7418
L4819 7358
L4834 7328
L4849 7313
L4879 7298
L4969 7298
L4999 7313
L5014 7328
L5029 7358
L5029 7418
L5014 7448
" />
<path d="M15524 11620
L15636 11620
" />
<path d="M15501 11688
L15580 11452
L15659 11688
" />
<path d="M15782 11452
L15805 11452
L15827 11463
L15839 11474
L15850 11497
L15861 11542
L15861 11598
L15850 11643
L15839 11665
L15827 11677
L15805 11688
L15782 11688
L15760 11677
L15749 11665
L15737 11643
L15726 11598
L15726 11542
L15737 11497
L15749 11474
L15760 11463
L15782 11452
" />
<path d="M14024 11620
L14136 11620
" />
<path d="M14001 11688
L14080 11452
L14159 11688
" />
<path d="M14361 11688
L14226 11688
" />
<path d="M14294 11688
L14294 11452
L14271 11485
L14249 11508
L14226 11519
" />
<path d="M12524 11620
L12636 11620
" />
<path d="M12501 11688
L12580 11452
L12659 11688
" />
<path d="M12726 11474
L12737 11463
L12760 11452
L12816 11452
L12839 11463
L12850 11474
L12861 11497
L12861 11519
L12850 11553
L12715 11688
L12861 11688
" />
<path d="M11024 11620
L11136 11620
" />
<path d="M11001 11688
L11080 11452
L11159 11688
" />
<path d="M11215 11452
L11361 11452
L11282 11542
L11316 11542
L11339 11553
L11350 11564
L11361 11587
L11361 11643
L11350 11665
L11339 11677
L11316 11688
L11249 11688
L11226 11677
L11215 11665
" />
<path d="M4834 9699
L4819 9744
L4819 9819
L4834 9849
L4849 9864
L4879 9879
L4909 9879
L4939 9864
L4954 9849
L4969 9819
L4984 9759
L4999 9729
L5014 9714
L5044 9699
L5074 9699
L5104 9714
L5119 9729
L5134 9759
L5134 9834
L5119 9879
" />
<path d="M4819 10014
L5134 10014
L5134 10088
L5119 10133
L5089 10163
L5059 10178
L4999 10193
L4954 10193
L4894 10178
L4864 10163
L4834 10133
L4819 10088
L4819 10014
" />
<path d="M4909 10313
L4909 10463
" />
<path d="M4819 10283
L5134 10388
L4819 10493
" />
<path d="M4834 8206
L4819 8251
L4819 8326
L4834 8356
L4849 8371
L4879 8386
L4909 8386
L4939 8371
L4954 8356
L4969 8326
L4984 8266
L4999 8236
L5014 8221
L5044 8206
L5074 8206
L5104 8221
L5119 8236
L5134 8266
L5134 8341
L5119 8386
" />
<path d="M4849 8701
L4834 8686
L4819 8641
L4819 8611
L4834 8566
L4864 8536
L4894 8521
L4954 8506
L4999 8506
L5059 8521
L5089 8536
L5119 8566
L5134 8611
L5134 8641
L5119 8686
L5104 8701
" />
<path d="M4819 8986
L4819 8836
L5134 8836
" />
</g>
<g style="fill:#000000; fill-opacity:0.0; 
stroke:#000000; stroke-width:39.3701; stroke-opacity:1; 
stroke-linecap:round; stroke-linejoin:round;">
<path d="M4715 12106
L4715 13181
" />
<path d="M4715.59 10506.5 A800 800 0.0 0 0 4715.59 12106.5 " />
<path d="M27015 13181
L27015 12106
" />
<path d="M27015.6 12106.5 A800 800 0.0 0 0 27015.6 10506.5 " />
<path d="M4715 1681
L27015 1681
" />
<path d="M27015 10506
L27015 1681
" />
<path d="M4715 13181
L27015 13181
" />
<path d="M4715 1681
L4715 10506
" />
</g> 
</svg>
